# xmcd
#
# Track frame offsets:
#	150
#	16109
#	28498
#	44474
#	60977
#	75956
#	95306
#	113181
#	142715
#	160960
#	179624
#	199517
#	219076
#	238022
#
# Disc length: 3343 seconds
#
# Revision: 1
# Processed by: cddbd v1.5.2PL0 Copyright (c) Steve Scherf et al.
# Submitted via: audiograbber 1.83.01
#
DISCID=aa0d0d0e
DTITLE=Overtime - Here wee are
DYEAR=1900
DGENRE=Hollands
TTITLE0=Overtime - If I said you have a beautiful body
TTITLE1=Overtime - Blue suede shoes
TTITLE2=Overtime - Once's
TTITLE3=Overtime - Teach your children
TTITLE4=Overtime - The loosing side
TTITLE5=Overtime - Ticket to heaven
TTITLE6=Overtime - Het is een nacht
TTITLE7=Overtime - Buona Sera - Oh, Marie
TTITLE8=Overtime - Southern streamline
TTITLE9=Overtime - The jukebox is playing
TTITLE10=Overtime - Dance the night away
TTITLE11=Overtime - The road ahead
TTITLE12=Overtime - Het is weer voorbij die mooie zomer
TTITLE13=Overtime - I can see clearly now
EXTD=
EXTT0=
EXTT1=
EXTT2=
EXTT3=
EXTT4=
EXTT5=
EXTT6=
EXTT7=
EXTT8=
EXTT9=
EXTT10=
EXTT11=
EXTT12=
EXTT13=
PLAYORDER=
